<?xml version="1.0" standalone="no"?>
<svg viewBox="0 0 200 200" xmlns="http://www.w3.org/2000/svg">
  <path fill="#0F62FE" d="M26.8,-41.9C40.7,-32.7,62.2,-35.5,74.7,-28.2C87.2,-21,90.7,-3.7,84.2,9.2C77.8,22.1,61.5,30.6,47.9,35.5C34.3,40.3,23.4,41.4,14.6,39.3C5.7,37.2,-1,31.8,-12.7,33.1C-24.4,34.3,-41,42.1,-55.3,40C-69.5,37.8,-81.4,25.6,-82.8,12.2C-84.3,-1.1,-75.2,-15.7,-68,-30.8C-60.7,-46,-55.3,-61.8,-44.3,-72.3C-33.2,-82.8,-16.6,-88.1,-5.1,-80.1C6.4,-72.2,12.8,-51.1,26.8,-41.9Z" transform="translate(100 100)" />
</svg>
